<svg xmlns="http://www.w3.org/2000/svg" xml:space="preserve" viewBox="0 0 86.489 100"><path d="M26.588 89.927 5.045 77.425l-.003-25.032-.003-25.032 21.543-12.478C38.43 8.02 48.196 2.405 48.284 2.405c.087 0 9.853 5.615 21.701 12.478l21.543 12.478-.003 25.032-.004 25.032-21.534 12.478c-11.844 6.863-21.607 12.489-21.696 12.502-.088.013-9.855-5.602-21.704-12.478Zm7.993-22.836v-2.756h-5.512v5.512h5.512zm32.764 0v-2.756h-5.512v5.512h5.512zM40.21 56.259l.042-2.794H34.58v2.73c0 1.502.047 2.778.105 2.836.058.058 1.316.087 2.794.064l2.69-.042zm10.752.038v-2.832H45.45v5.665h5.512zm10.835-.042.042-2.797-2.644.042-2.645.041-.042 2.598c-.023 1.428-.008 2.687.035 2.797.06.157.638.192 2.645.16l2.568-.043zM45.451 45.35v-2.602h-5.205v5.205h5.205zm11.142-.038.042-2.564h-5.672v5.212l2.794-.042 2.794-.041zm-5.63-10.985v-2.756H45.45v5.512h5.512z" style="fill:#fff;stroke-width:.578656;fill-opacity:1" transform="translate(-5.039 -2.405)"/></svg>